<?xml version="1.0" standalone="no"?>
<!DOCTYPE svg PUBLIC "-//W3C//DTD SVG 20010904//EN"
 "http://www.w3.org/TR/2001/REC-SVG-20010904/DTD/svg10.dtd">
<svg version="1.0" xmlns="http://www.w3.org/2000/svg"
 width="1300.000000pt" height="1300.000000pt" viewBox="0 0 1300.000000 1300.000000"
 preserveAspectRatio="xMidYMid meet">

<g transform="translate(0.000000,1300.000000) scale(0.100000,-0.100000)"
fill="#000000" stroke="none">
<path d="M5965 7150 c-3 -5 -1 -10 4 -10 6 0 11 5 11 10 0 6 -2 10 -4 10 -3 0
-8 -4 -11 -10z"/>
<path d="M6578 6363 c7 -3 16 -2 19 1 4 3 -2 6 -13 5 -11 0 -14 -3 -6 -6z"/>
<path d="M6368 6243 c7 -3 16 -2 19 1 4 3 -2 6 -13 5 -11 0 -14 -3 -6 -6z"/>
<path d="M3331 6134 c0 -11 3 -14 6 -6 3 7 2 16 -1 19 -3 4 -6 -2 -5 -13z"/>
<path d="M7385 6090 c3 -5 11 -10 16 -10 6 0 7 5 4 10 -3 6 -11 10 -16 10 -6
0 -7 -4 -4 -10z"/>
<path d="M3261 5904 c0 -11 3 -14 6 -6 3 7 2 16 -1 19 -3 4 -6 -2 -5 -13z"/>
<path d="M10231 5584 c0 -11 3 -14 6 -6 3 7 2 16 -1 19 -3 4 -6 -2 -5 -13z"/>
<path d="M7441 5494 c0 -11 3 -14 6 -6 3 7 2 16 -1 19 -3 4 -6 -2 -5 -13z"/>
<path d="M3181 5444 c0 -11 3 -14 6 -6 3 7 2 16 -1 19 -3 4 -6 -2 -5 -13z"/>
<path d="M5993 5340 c0 -30 2 -43 4 -27 2 15 2 39 0 55 -2 15 -4 2 -4 -28z"/>
<path d="M7436 5313 c-6 -14 -5 -15 5 -6 7 7 10 15 7 18 -3 3 -9 -2 -12 -12z"/>
<path d="M3183 5240 c0 -30 2 -43 4 -27 2 15 2 39 0 55 -2 15 -4 2 -4 -28z"/>
<path d="M7441 5274 c0 -11 3 -14 6 -6 3 7 2 16 -1 19 -3 4 -6 -2 -5 -13z"/>
<path d="M5990 5235 c0 -8 4 -15 10 -15 5 0 7 7 4 15 -4 8 -8 15 -10 15 -2 0
-4 -7 -4 -15z"/>
<path d="M7436 5241 c-4 -7 -5 -15 -2 -18 9 -9 19 4 14 18 -4 11 -6 11 -12 0z"/>
<path d="M3180 5101 c0 -17 2 -31 4 -31 8 0 13 51 5 56 -5 3 -9 -9 -9 -25z"/>
<path d="M5034 4920 c0 -113 2 -159 3 -102 2 56 2 148 0 205 -1 56 -3 10 -3
-103z"/>
<path d="M6245 5091 c-3 -5 -1 -12 5 -16 5 -3 10 1 10 9 0 18 -6 21 -15 7z"/>
<path d="M10180 5010 c0 -5 5 -10 11 -10 5 0 7 5 4 10 -3 6 -8 10 -11 10 -2 0
-4 -4 -4 -10z"/>
<path d="M3201 4904 c0 -11 3 -14 6 -6 3 7 2 16 -1 19 -3 4 -6 -2 -5 -13z"/>
<path d="M10231 4904 c0 -11 3 -14 6 -6 3 7 2 16 -1 19 -3 4 -6 -2 -5 -13z"/>
<path d="M7017 4896 c-4 -10 -1 -13 9 -9 7 3 14 9 14 14 0 14 -17 10 -23 -5z"/>
<path d="M7152 4890 c7 -10 14 -18 15 -16 6 6 -9 36 -18 36 -5 0 -4 -9 3 -20z"/>
<path d="M7200 4870 c0 -5 5 -10 10 -10 6 0 10 5 10 10 0 6 -4 10 -10 10 -5 0
-10 -4 -10 -10z"/>
<path d="M10200 4850 c0 -5 5 -10 11 -10 5 0 7 5 4 10 -3 6 -8 10 -11 10 -2 0
-4 -4 -4 -10z"/>
<path d="M10222 4790 c0 -14 2 -19 5 -12 2 6 2 18 0 25 -3 6 -5 1 -5 -13z"/>
<path d="M6130 4760 c0 -5 5 -10 11 -10 5 0 7 5 4 10 -3 6 -8 10 -11 10 -2 0
-4 -4 -4 -10z"/>
<path d="M7260 4760 c0 -5 5 -10 10 -10 6 0 10 5 10 10 0 6 -4 10 -10 10 -5 0
-10 -4 -10 -10z"/>
<path d="M3231 4704 c0 -11 3 -14 6 -6 3 7 2 16 -1 19 -3 4 -6 -2 -5 -13z"/>
<path d="M7290 4710 c0 -5 9 -14 20 -20 23 -12 26 -5 6 16 -17 16 -26 18 -26
4z"/>
<path d="M10202 4685 c0 -16 2 -22 5 -12 2 9 2 23 0 30 -3 6 -5 -1 -5 -18z"/>
<path d="M8387 4659 c7 -7 15 -10 18 -7 3 3 -2 9 -12 12 -14 6 -15 5 -6 -5z"/>
<path d="M6047 4629 c4 -13 8 -18 11 -10 2 7 -1 18 -6 23 -8 8 -9 4 -5 -13z"/>
<path d="M6096 4641 c-4 -7 -5 -15 -2 -18 9 -9 19 4 14 18 -4 11 -6 11 -12 0z"/>
<path d="M3252 4615 c0 -16 2 -22 5 -12 2 9 2 23 0 30 -3 6 -5 -1 -5 -18z"/>
<path d="M10182 4605 c0 -16 2 -22 5 -12 2 9 2 23 0 30 -3 6 -5 -1 -5 -18z"/>
<path d="M5111 4611 c-9 -6 -10 -11 -2 -15 6 -4 11 -3 11 3 0 5 8 12 18 14 12
3 13 5 2 6 -8 0 -21 -3 -29 -8z"/>
<path d="M7361 4564 c0 -11 3 -14 6 -6 3 7 2 16 -1 19 -3 4 -6 -2 -5 -13z"/>
<path d="M3261 4534 c0 -11 3 -14 6 -6 3 7 2 16 -1 19 -3 4 -6 -2 -5 -13z"/>
<path d="M7380 4531 c0 -6 5 -13 10 -16 6 -3 10 1 10 9 0 9 -4 16 -10 16 -5 0
-10 -4 -10 -9z"/>
<path d="M8115 4513 c-19 -11 -25 -18 -16 -21 7 -2 16 0 20 5 3 5 15 15 26 21
31 18 4 13 -30 -5z"/>
<path d="M5245 4510 c-3 -6 1 -7 9 -4 18 7 21 14 7 14 -6 0 -13 -4 -16 -10z"/>
<path d="M5305 4510 c-3 -5 -2 -10 4 -10 5 0 13 5 16 10 3 6 2 10 -4 10 -5 0
-13 -4 -16 -10z"/>
<path d="M7440 4513 c0 -6 8 -17 18 -24 16 -13 16 -13 2 6 -8 11 -16 22 -17
24 -2 2 -3 0 -3 -6z"/>
<path d="M5960 4501 c0 -6 5 -13 10 -16 6 -3 10 1 10 9 0 9 -4 16 -10 16 -5 0
-10 -4 -10 -9z"/>
<path d="M10152 4475 c0 -16 2 -22 5 -12 2 9 2 23 0 30 -3 6 -5 -1 -5 -18z"/>
<path d="M5922 4478 c2 -6 -4 -20 -14 -30 -10 -10 -18 -24 -18 -30 0 -7 14 2
30 20 35 39 35 38 14 46 -10 4 -14 1 -12 -6z"/>
<path d="M5430 4440 c0 -6 7 -10 15 -10 8 0 15 2 15 4 0 2 -7 6 -15 10 -8 3
-15 1 -15 -4z"/>
<path d="M5950 4435 c0 -8 5 -15 10 -15 6 0 10 7 10 15 0 8 -4 15 -10 15 -5 0
-10 -7 -10 -15z"/>
<path d="M7490 4431 c0 -6 4 -13 10 -16 6 -3 7 1 4 9 -7 18 -14 21 -14 7z"/>
<path d="M7985 4430 c3 -5 11 -10 16 -10 6 0 7 5 4 10 -3 6 -11 10 -16 10 -6
0 -7 -4 -4 -10z"/>
<path d="M7951 4408 c8 -9 26 -19 39 -23 21 -7 22 -6 9 7 -8 9 -26 19 -39 23
-21 7 -22 6 -9 -7z"/>
<path d="M5410 4400 c0 -5 7 -10 16 -10 8 0 12 5 9 10 -3 6 -10 10 -16 10 -5
0 -9 -4 -9 -10z"/>
<path d="M5480 4400 c0 -5 5 -10 10 -10 6 0 10 5 10 10 0 6 -4 10 -10 10 -5 0
-10 -4 -10 -10z"/>
<path d="M5920 4390 c0 -5 5 -10 10 -10 6 0 10 5 10 10 0 6 -4 10 -10 10 -5 0
-10 -4 -10 -10z"/>
<path d="M7870 4375 c-8 -9 -8 -15 -2 -15 12 0 26 19 19 26 -2 2 -10 -2 -17
-11z"/>
<path d="M5976 4371 c-4 -7 -5 -15 -2 -18 9 -9 19 4 14 18 -4 11 -6 11 -12 0z"/>
<path d="M5568 4363 c7 -3 16 -2 19 1 4 3 -2 6 -13 5 -11 0 -14 -3 -6 -6z"/>
<path d="M5398 4353 c7 -3 16 -2 19 1 4 3 -2 6 -13 5 -11 0 -14 -3 -6 -6z"/>
<path d="M7820 4343 c-14 -7 -18 -13 -10 -13 17 0 47 17 40 23 -3 2 -16 -2
-30 -10z"/>
<path d="M5581 4341 c-8 -5 -9 -11 -3 -15 5 -3 15 1 22 9 14 16 3 20 -19 6z"/>
<path d="M5850 4329 c0 -5 5 -7 10 -4 6 3 10 8 10 11 0 2 -4 4 -10 4 -5 0 -10
-5 -10 -11z"/>
<path d="M7240 4330 c0 -5 5 -10 10 -10 6 0 10 5 10 10 0 6 -4 10 -10 10 -5 0
-10 -4 -10 -10z"/>
<path d="M7516 4331 c-8 -12 23 -71 37 -71 8 0 7 4 -1 12 -7 7 -12 22 -12 34
0 24 -15 40 -24 25z"/>
<path d="M7938 4333 c7 -3 16 -2 19 1 4 3 -2 6 -13 5 -11 0 -14 -3 -6 -6z"/>
<path d="M5821 4314 c0 -11 3 -14 6 -6 3 7 2 16 -1 19 -3 4 -6 -2 -5 -13z"/>
<path d="M10030 4320 c0 -5 5 -10 11 -10 5 0 7 5 4 10 -3 6 -8 10 -11 10 -2 0
-4 -4 -4 -10z"/>
<path d="M10080 4320 c0 -5 5 -10 10 -10 6 0 10 -10 10 -22 0 -12 3 -19 6 -15
9 9 -5 57 -16 57 -6 0 -10 -4 -10 -10z"/>
<path d="M7770 4305 c-7 -8 -8 -15 -2 -15 5 0 15 7 22 15 7 8 8 15 2 15 -5 0
-15 -7 -22 -15z"/>
<path d="M3330 4295 c0 -8 5 -15 10 -15 6 0 10 7 10 15 0 8 -4 15 -10 15 -5 0
-10 -7 -10 -15z"/>
<path d="M5690 4288 c24 -24 70 -43 70 -30 0 4 -22 18 -48 31 l-47 24 25 -25z"/>
<path d="M5797 4275 c-4 -8 -2 -17 3 -20 6 -4 10 3 10 14 0 25 -6 27 -13 6z"/>
<path d="M10001 4274 c0 -11 3 -14 6 -6 3 7 2 16 -1 19 -3 4 -6 -2 -5 -13z"/>
<path d="M5640 4270 c0 -5 5 -10 10 -10 6 0 10 5 10 10 0 6 -4 10 -10 10 -5 0
-10 -4 -10 -10z"/>
<path d="M5836 4271 c-4 -7 -5 -15 -2 -18 9 -9 19 4 14 18 -4 11 -6 11 -12 0z"/>
<path d="M7700 4245 c-10 -12 -10 -15 4 -15 9 0 16 7 16 15 0 8 -2 15 -4 15
-2 0 -9 -7 -16 -15z"/>
<path d="M10080 4244 c0 -8 5 -12 10 -9 6 4 8 11 5 16 -9 14 -15 11 -15 -7z"/>
<path d="M5610 4240 c0 -5 5 -10 10 -10 6 0 10 5 10 10 0 6 -4 10 -10 10 -5 0
-10 -4 -10 -10z"/>
<path d="M5766 4235 c-3 -8 -1 -15 4 -15 6 0 10 7 10 15 0 8 -2 15 -4 15 -2 0
-6 -7 -10 -15z"/>
<path d="M7644 4239 c-3 -6 -1 -16 5 -22 8 -8 11 -5 11 11 0 24 -5 28 -16 11z"/>
<path d="M7577 4229 c7 -7 15 -10 18 -7 3 3 -2 9 -12 12 -14 6 -15 5 -6 -5z"/>
<path d="M5665 4220 c-3 -5 -1 -10 4 -10 6 0 11 5 11 10 0 6 -2 10 -4 10 -3 0
-8 -4 -11 -10z"/>
<path d="M5850 4220 c0 -5 4 -10 9 -10 6 0 13 5 16 10 3 6 -1 10 -9 10 -9 0
-16 -4 -16 -10z"/>
<path d="M10056 4211 c-3 -5 1 -11 9 -14 9 -4 12 -1 8 9 -6 16 -10 17 -17 5z"/>
<path d="M3381 4154 c0 -11 3 -14 6 -6 3 7 2 16 -1 19 -3 4 -6 -2 -5 -13z"/>
<path d="M3410 4160 c0 -5 5 -10 10 -10 6 0 10 5 10 10 0 6 -4 10 -10 10 -5 0
-10 -4 -10 -10z"/>
<path d="M10005 4160 c-3 -5 -1 -10 4 -10 6 0 11 5 11 10 0 6 -2 10 -4 10 -3
0 -8 -4 -11 -10z"/>
<path d="M10051 4154 c0 -11 3 -14 6 -6 3 7 2 16 -1 19 -3 4 -6 -2 -5 -13z"/>
<path d="M3390 4123 c0 -5 8 -17 17 -28 14 -18 15 -18 9 -2 -3 10 -6 23 -6 28
0 5 -4 9 -10 9 -5 0 -10 -3 -10 -7z"/>
<path d="M10030 4114 c0 -8 5 -12 10 -9 6 3 10 10 10 16 0 5 -4 9 -10 9 -5 0
-10 -7 -10 -16z"/>
<path d="M3431 4024 c0 -11 3 -14 6 -6 3 7 2 16 -1 19 -3 4 -6 -2 -5 -13z"/>
<path d="M9890 4005 c0 -8 2 -15 4 -15 2 0 6 7 10 15 3 8 1 15 -4 15 -6 0 -10
-7 -10 -15z"/>
<path d="M3444 3988 c3 -7 9 -21 12 -30 4 -10 10 -18 14 -18 4 0 11 -12 14
-26 4 -15 9 -24 12 -21 7 7 -39 107 -49 107 -5 0 -6 -6 -3 -12z"/>
<path d="M9931 3974 c0 -11 3 -14 6 -6 3 7 2 16 -1 19 -3 4 -6 -2 -5 -13z"/>
<path d="M9955 3932 c-11 -20 -21 -40 -23 -44 -2 -5 0 -8 5 -8 9 1 47 79 41
85 -2 3 -13 -12 -23 -33z"/>
<path d="M3511 3854 c0 -11 3 -14 6 -6 3 7 2 16 -1 19 -3 4 -6 -2 -5 -13z"/>
<path d="M3550 3835 c0 -8 5 -15 10 -15 6 0 10 7 10 15 0 8 -4 15 -10 15 -5 0
-10 -7 -10 -15z"/>
<path d="M9902 3820 c0 -14 2 -19 5 -12 2 6 2 18 0 25 -3 6 -5 1 -5 -13z"/>
<path d="M3530 3812 c0 -5 7 -15 15 -22 8 -7 15 -9 15 -6 0 4 -7 14 -15 22 -8
9 -15 11 -15 6z"/>
<path d="M3600 3810 c0 -5 5 -10 10 -10 6 0 10 5 10 10 0 6 -4 10 -10 10 -5 0
-10 -4 -10 -10z"/>
<path d="M9880 3791 c0 -7 -4 -9 -10 -6 -5 3 -10 -2 -10 -12 0 -16 1 -16 17 0
9 9 14 20 10 23 -4 4 -7 2 -7 -5z"/>
<path d="M3561 3754 c0 -11 3 -14 6 -6 3 7 2 16 -1 19 -3 4 -6 -2 -5 -13z"/>
<path d="M3611 3738 c0 -9 -4 -25 -7 -35 -5 -17 -5 -17 6 0 6 10 9 25 7 35 -4
15 -5 15 -6 0z"/>
<path d="M9841 3736 c-8 -9 -11 -19 -7 -23 9 -9 29 13 24 27 -2 8 -8 7 -17 -4z"/>
<path d="M9738 3685 c-6 -30 -3 -43 8 -33 3 4 4 19 2 35 l-3 28 -7 -30z"/>
<path d="M9780 3683 c0 -18 6 -33 15 -37 12 -4 14 0 9 22 -10 41 -24 50 -24
15z"/>
<path d="M3700 3660 c0 -5 5 -10 10 -10 6 0 10 5 10 10 0 6 -4 10 -10 10 -5 0
-10 -4 -10 -10z"/>
<path d="M3713 3625 c-21 -24 -14 -40 7 -17 11 12 20 24 20 27 0 10 -15 4 -27
-10z"/>
<path d="M9750 3635 c0 -3 5 -14 12 -25 14 -22 2 -41 -13 -20 -8 11 -9 9 -4
-9 5 -15 2 -27 -6 -32 -8 -5 -9 -9 -3 -9 6 0 24 19 39 42 21 31 23 39 10 34
-13 -4 -16 -2 -11 9 3 9 0 15 -9 15 -8 0 -15 -2 -15 -5z"/>
<path d="M3640 3620 c0 -6 5 -16 10 -23 6 -7 20 -24 31 -40 11 -15 25 -25 30
-22 15 10 10 28 -6 21 -9 -3 -15 0 -15 9 0 8 -4 15 -10 15 -5 0 -12 11 -16 25
-6 24 -24 35 -24 15z"/>
<path d="M3735 3590 c-3 -5 -1 -10 4 -10 6 0 11 5 11 10 0 6 -2 10 -4 10 -3 0
-8 -4 -11 -10z"/>
<path d="M3740 3526 c0 -8 -5 -16 -11 -18 -8 -3 -8 -10 2 -26 14 -23 29 -29
29 -12 0 6 -4 10 -10 10 -16 0 -12 27 6 34 8 3 12 10 9 16 -9 15 -25 12 -25
-4z"/>
<path d="M9690 3530 c0 -21 16 -44 23 -33 4 6 0 19 -8 29 -11 15 -14 16 -15 4z"/>
<path d="M9630 3525 c0 -12 62 -66 69 -59 3 4 0 9 -6 11 -7 3 -13 9 -13 15 0
6 -8 17 -17 24 -19 14 -33 18 -33 9z"/>
<path d="M3843 3500 c-3 -11 -12 -20 -20 -20 -11 0 -13 -7 -7 -32 4 -18 7 -38
7 -45 0 -6 6 -9 13 -6 8 3 11 16 7 36 -4 24 0 37 16 51 25 23 27 36 5 36 -9 0
-18 -9 -21 -20z"/>
<path d="M9607 3493 c-4 -3 -7 -11 -7 -17 0 -6 5 -5 12 2 6 6 9 14 7 17 -3 3
-9 2 -12 -2z"/>
<path d="M3770 3480 c0 -5 4 -10 9 -10 6 0 13 5 16 10 3 6 -1 10 -9 10 -9 0
-16 -4 -16 -10z"/>
<path d="M3870 3445 c0 -8 5 -15 10 -15 6 0 10 7 10 15 0 8 -4 15 -10 15 -5 0
-10 -7 -10 -15z"/>
<path d="M9620 3446 c0 -26 24 -34 43 -14 13 14 14 18 3 18 -8 0 -17 -6 -19
-12 -3 -8 -6 -6 -6 5 -1 20 -21 24 -21 3z"/>
<path d="M3777 3430 c9 -11 19 -17 21 -15 6 6 -18 35 -29 35 -5 0 -1 -9 8 -20z"/>
<path d="M9597 3406 c-4 -10 -1 -13 9 -9 7 3 14 0 14 -6 0 -6 -4 -11 -10 -11
-5 0 -10 -4 -10 -10 0 -15 17 -12 24 5 6 17 -2 45 -14 45 -4 0 -10 -7 -13 -14z"/>
<path d="M3854 3361 c10 -11 16 -26 14 -33 -3 -7 1 -18 8 -25 7 -7 14 -18 17
-25 2 -7 8 -10 12 -6 4 4 0 15 -9 24 -10 9 -15 23 -12 30 6 15 -22 54 -38 54
-5 0 -1 -9 8 -19z"/>
<path d="M9490 3359 c0 -11 5 -17 10 -14 6 3 10 13 10 21 0 8 -4 14 -10 14 -5
0 -10 -9 -10 -21z"/>
<path d="M9540 3365 c0 -8 7 -15 15 -15 8 0 15 7 15 15 0 8 -7 15 -15 15 -8 0
-15 -7 -15 -15z"/>
<path d="M3836 3347 c3 -10 9 -15 12 -12 3 3 0 11 -7 18 -10 9 -11 8 -5 -6z"/>
<path d="M9573 3338 c-6 -7 -13 -19 -17 -25 -12 -21 18 -5 32 17 13 22 1 28
-15 8z"/>
<path d="M9471 3324 c0 -11 3 -14 6 -6 3 7 2 16 -1 19 -3 4 -6 -2 -5 -13z"/>
<path d="M9511 3317 c-5 -13 -16 -29 -25 -36 -9 -7 -16 -18 -16 -23 0 -5 16 7
35 26 35 37 44 56 25 56 -6 0 -14 -10 -19 -23z"/>
<path d="M9503 3253 c-47 -52 -41 -65 7 -15 22 22 40 44 40 47 0 13 -17 1 -47
-32z"/>
<path d="M3920 3264 c0 -10 31 -36 37 -31 3 3 -2 13 -10 22 -16 15 -27 19 -27
9z"/>
<path d="M3970 3260 c0 -5 5 -10 10 -10 6 0 10 -6 10 -14 0 -7 7 -19 15 -26
12 -10 15 -10 15 4 0 9 -4 16 -9 16 -5 0 -13 9 -16 20 -7 21 -25 28 -25 10z"/>
<path d="M9360 3260 c0 -5 5 -10 10 -10 6 0 10 5 10 10 0 6 -4 10 -10 10 -5 0
-10 -4 -10 -10z"/>
<path d="M9340 3224 c0 -8 5 -12 10 -9 6 4 8 11 5 16 -9 14 -15 11 -15 -7z"/>
<path d="M9385 3211 c-3 -5 -1 -12 5 -16 12 -7 30 2 30 16 0 12 -27 12 -35 0z"/>
<path d="M9451 3184 c0 -11 3 -14 6 -6 3 7 2 16 -1 19 -3 4 -6 -2 -5 -13z"/>
<path d="M3980 3185 c0 -5 4 -16 9 -23 6 -10 11 -9 22 4 11 14 11 16 0 10 -8
-5 -17 -3 -22 5 -5 8 -9 10 -9 4z"/>
<path d="M9412 3158 c-6 -6 -12 -18 -12 -26 0 -10 -7 -12 -26 -8 -25 7 -25 6
-9 -10 16 -16 18 -15 42 10 24 27 30 59 5 34z"/>
<path d="M4030 3128 c15 -17 23 -19 32 -10 6 6 8 15 4 19 -4 4 -11 2 -15 -6
-7 -10 -10 -9 -14 3 -4 9 -11 16 -17 16 -6 0 -2 -10 10 -22z"/>
<path d="M4082 3116 l-22 -22 37 -36 c21 -19 44 -33 51 -31 20 8 14 26 -8 20
-25 -7 -25 1 1 29 11 12 16 24 11 28 -5 3 -15 -6 -22 -20 -15 -27 -33 -27 -38
1 -3 12 0 15 9 10 7 -5 10 -4 5 3 -3 6 -2 13 4 17 12 7 14 25 3 24 -5 0 -18
-10 -31 -23z"/>
<path d="M9226 3114 c-9 -22 -8 -24 8 -18 20 8 29 34 12 34 -8 0 -17 -7 -20
-16z"/>
<path d="M9293 3093 c-18 -6 -16 -23 1 -23 17 0 30 16 19 23 -5 2 -14 2 -20 0z"/>
<path d="M9347 3083 c-4 -3 -7 -11 -7 -17 0 -6 5 -5 12 2 6 6 9 14 7 17 -3 3
-9 2 -12 -2z"/>
<path d="M9230 3065 c-18 -21 -3 -32 16 -13 10 9 12 18 6 22 -5 3 -15 -1 -22
-9z"/>
<path d="M9274 3033 c-62 -70 -83 -91 -114 -114 -19 -15 -45 -37 -58 -49 -30
-28 -41 -19 -13 11 20 22 27 39 15 39 -10 0 -34 -28 -34 -39 0 -6 -5 -11 -11
-11 -6 0 -8 -9 -4 -20 5 -14 2 -20 -9 -20 -9 0 -16 7 -16 15 0 20 -12 19 -40
-5 -16 -14 -27 -17 -39 -10 -15 7 -17 3 -18 -27 -1 -37 23 -75 35 -56 4 5 34
30 68 54 76 55 152 119 222 186 30 29 60 54 66 57 6 2 1 5 -11 5 -13 1 -30 -7
-39 -16z m-244 -213 c0 -12 -28 -25 -36 -17 -9 9 6 27 22 27 8 0 14 -5 14 -10z
m-55 -30 c0 -7 -6 -15 -12 -17 -8 -3 -13 4 -13 17 0 13 5 20 13 18 6 -3 12
-11 12 -18z"/>
<path d="M4185 2999 c-10 -15 3 -25 16 -12 7 7 7 13 1 17 -6 3 -14 1 -17 -5z"/>
<path d="M9130 3000 c-13 -8 -12 -10 2 -10 26 0 32 -20 12 -35 -11 -7 -16 -16
-12 -20 4 -4 21 3 39 16 22 16 28 24 18 27 -8 3 -21 11 -29 18 -10 9 -20 10
-30 4z"/>
<path d="M4270 2985 c0 -8 5 -15 10 -15 6 0 10 7 10 15 0 8 -4 15 -10 15 -5 0
-10 -7 -10 -15z"/>
<path d="M4340 2991 c0 -5 8 -12 18 -15 11 -4 25 -18 32 -31 7 -14 17 -25 22
-25 16 0 8 46 -12 63 -22 18 -60 23 -60 8z"/>
<path d="M4212 2971 c-10 -6 -10 -10 2 -20 8 -7 19 -10 24 -7 6 3 9 -2 8 -12
-1 -12 6 -17 25 -17 31 0 62 -23 55 -41 -7 -18 64 -70 74 -54 4 7 13 9 19 5 8
-5 9 -11 2 -19 -13 -15 -6 -21 127 -109 57 -38 109 -66 117 -63 8 3 17 1 20
-4 3 -4 -1 -11 -7 -13 -7 -3 -3 -6 10 -6 12 -1 22 -4 22 -9 0 -4 9 -13 21 -20
19 -12 20 -11 14 7 -8 26 6 27 22 2 10 -15 10 -21 0 -25 -7 -3 -2 -3 10 0 19
4 22 2 16 -12 -4 -12 -3 -15 6 -10 7 5 19 -1 30 -13 19 -22 41 -28 41 -11 0 6
7 10 15 10 8 0 15 -7 15 -15 0 -8 -5 -15 -12 -15 -6 0 -9 -2 -7 -5 10 -9 49 8
49 21 0 8 6 14 14 14 18 0 28 -40 14 -57 -13 -16 12 -19 28 -3 12 12 44 3 44
-11 0 -5 -11 -7 -25 -3 -15 4 -25 2 -25 -4 0 -6 21 -14 46 -18 33 -5 42 -9 33
-16 -10 -7 -6 -8 13 -4 22 5 26 3 21 -9 -4 -13 0 -15 23 -9 16 3 44 15 62 25
37 21 42 22 42 11 0 -11 -41 -35 -75 -42 l-30 -7 45 -13 c25 -7 51 -18 58 -23
7 -6 33 -10 58 -10 45 0 59 -11 27 -21 -10 -3 0 -3 21 0 35 5 38 4 27 -10 -11
-14 -11 -16 3 -16 29 0 56 19 50 35 -4 9 0 15 10 15 22 0 20 -19 -6 -41 -14
-13 -16 -19 -7 -19 27 0 59 12 59 22 0 13 26 38 39 38 20 0 11 -18 -24 -49
-35 -30 -35 -31 -11 -31 13 0 26 -4 28 -9 2 -4 26 -11 53 -15 35 -5 46 -4 35
3 -12 9 -10 11 11 11 19 0 26 -5 25 -17 -1 -12 7 -19 24 -21 14 -2 30 -8 36
-13 20 -16 162 -23 179 -9 11 9 19 10 26 3 6 -6 27 -9 47 -7 34 4 35 3 12 -7
-14 -6 -36 -9 -50 -6 -14 2 -38 1 -55 -3 l-30 -8 30 -1 c17 0 46 -6 65 -12 19
-5 73 -12 120 -14 47 -2 89 -4 93 -5 5 0 5 -4 2 -10 -4 -6 11 -10 37 -10 24 0
48 -4 54 -9 11 -11 184 -19 184 -8 0 4 5 7 11 7 5 0 7 -4 4 -10 -4 -7 102 -10
311 -10 281 0 320 2 336 17 12 11 18 12 18 3 0 -9 18 -11 78 -6 162 14 192 18
192 27 0 5 22 9 49 9 28 0 53 4 56 10 3 5 27 7 53 4 45 -5 46 -5 27 11 -19 15
-16 16 45 11 l65 -6 -50 18 c-49 18 -49 19 -21 26 20 5 32 3 37 -6 10 -16 128
-16 162 -1 37 18 128 43 153 43 28 0 32 17 7 23 -10 2 5 2 32 0 39 -3 45 -1
30 7 -16 8 -12 9 23 7 23 -1 42 1 42 5 0 5 -7 8 -16 8 -14 0 -14 3 -4 15 7 8
21 15 32 15 17 0 18 -3 8 -15 -10 -13 -9 -15 9 -15 11 0 21 5 21 10 0 6 11 10
25 10 17 0 23 4 19 14 -4 11 1 13 18 10 22 -5 22 -5 -2 8 -26 14 -41 58 -19
58 7 0 20 7 30 16 10 9 36 17 60 18 25 1 46 9 54 19 11 16 35 24 35 12 0 -16
-38 -45 -59 -45 -33 0 -100 -32 -101 -48 0 -20 48 -38 62 -24 7 7 20 12 30 12
10 0 18 5 18 10 0 6 9 10 19 10 12 0 18 7 17 17 -1 23 31 29 36 7 3 -15 7 -13
28 9 18 19 28 23 38 15 9 -8 11 -7 6 6 -5 14 -2 16 22 11 25 -5 27 -5 13 7 -8
7 -18 23 -21 36 -5 17 -1 23 18 28 13 3 26 15 29 25 4 10 15 24 26 30 11 5 17
14 14 19 -3 4 7 13 22 19 28 11 28 11 -4 5 -19 -3 -33 -1 -33 4 0 15 55 19 69
5 7 -8 8 -13 1 -13 -5 0 -10 -4 -10 -10 0 -5 7 -10 15 -10 8 0 15 5 15 10 0 6
7 10 15 10 8 0 15 -6 15 -14 0 -18 -48 -30 -65 -16 -7 6 -15 7 -18 3 -3 -4 12
-19 32 -33 31 -22 39 -24 59 -14 19 9 20 13 8 17 -9 4 -16 11 -16 17 0 7 6 8
19 0 26 -13 52 -13 29 1 -10 5 -18 16 -18 24 0 7 -6 16 -12 19 -7 3 -3 3 10 0
18 -4 22 -1 22 18 0 13 5 29 12 36 9 9 8 15 -7 26 -21 15 -85 1 -85 -19 0 -7
-17 -12 -40 -13 -32 -2 -40 2 -41 16 0 10 -3 12 -6 5 -3 -8 -23 -13 -48 -13
-40 0 -44 2 -50 30 l-7 30 -1708 0 c-940 0 -1716 3 -1726 7 -15 5 -16 2 -11
-27 8 -36 -5 -60 -32 -59 -12 0 -11 2 4 9 20 8 19 9 -1 9 -16 1 -23 -7 -27
-28 -3 -16 -20 -43 -37 -60 l-32 -31 -18 22 c-56 71 -120 123 -120 98 0 -6 -4
-10 -10 -10 -14 0 -12 27 3 34 6 3 0 3 -15 0 -35 -8 -38 13 -3 22 14 3 25 10
25 15 0 13 -12 11 -34 -6 -26 -19 -47 -19 -40 0 8 19 -1 19 -32 -1 -24 -16
-27 -16 -54 5 -16 11 -31 21 -34 21 -3 0 -17 11 -32 25 -15 14 -22 25 -16 25
12 0 103 -59 113 -73 10 -14 19 22 19 78 0 30 -5 57 -12 61 -7 5 -9 2 -5 -8 4
-12 1 -14 -14 -11 -10 3 -19 9 -19 14 0 5 -7 9 -15 9 -8 0 -15 -4 -15 -10 0
-5 7 -10 15 -10 8 0 15 -4 15 -10 0 -5 8 -10 18 -11 9 0 12 -3 6 -5 -14 -6
-94 27 -94 38 0 5 -7 8 -15 8 -37 0 -5 -37 41 -46 34 -7 67 -31 77 -57 8 -20
4 -19 -57 25 -21 15 -44 28 -49 28 -6 0 -19 8 -29 17 -15 14 -21 15 -27 4 -14
-23 -51 9 -51 44 0 45 -13 59 -48 52 -22 -4 -32 -2 -36 9 -4 11 -13 13 -27 9
-18 -6 -21 -4 -16 9 7 18 7 19 -11 7z m409 -281 c5 0 9 -4 9 -10 0 -15 -20
-12 -38 7 -16 16 -16 16 1 10 10 -4 23 -7 28 -7z m336 -92 c14 -22 10 -56 -5
-50 -8 3 -17 -1 -22 -8 -6 -9 -13 -8 -34 5 l-26 18 22 22 c26 26 53 31 65 13z
m3519 0 c9 -14 -31 -48 -57 -48 -10 0 -19 7 -19 15 0 8 7 15 15 15 9 0 18 7
21 15 7 18 30 20 40 3z m142 -46 c2 -7 -2 -10 -12 -6 -9 3 -16 11 -16 16 0 13
23 5 28 -10z m-3748 -12 c0 -5 -6 -10 -14 -10 -8 0 -18 5 -21 10 -3 6 3 10 14
10 12 0 21 -4 21 -10z m273 -57 c-7 -2 -21 -2 -30 0 -10 3 -4 5 12 5 17 0 24
-2 18 -5z m70 0 c-7 -2 -19 -2 -25 0 -7 3 -2 5 12 5 14 0 19 -2 13 -5z m3144
1 c-3 -3 -12 -4 -19 -1 -8 3 -5 6 6 6 11 1 17 -2 13 -5z m-87 -22 c0 -11 -8
-13 -35 -8 -25 5 -44 2 -66 -11 -26 -16 -31 -16 -39 -3 -5 8 -9 20 -9 25 0 6
3 4 6 -2 2 -7 13 -13 24 -13 10 0 19 6 19 13 0 8 17 12 50 13 37 0 50 -3 50
-14z m130 11 c-2 -31 -51 -55 -65 -33 -3 6 0 10 8 10 8 0 20 7 27 15 13 16 30
20 30 8z m-3320 -13 c0 -5 11 -10 24 -10 24 0 43 -16 33 -27 -8 -8 -66 20 -72
34 -2 7 0 13 5 13 6 0 10 -4 10 -10z m3173 -81 c-15 -10 -34 -19 -40 -19 -19
0 -16 20 5 26 9 3 24 9 32 14 29 15 32 -2 3 -21z m-3007 10 c3 -6 17 -8 33 -4
14 4 23 3 18 -1 -12 -12 -127 -15 -127 -3 0 7 10 9 25 5 14 -4 25 -2 25 4 0
13 17 13 26 -1z m347 -61 c15 -7 27 -16 27 -20 0 -13 -25 -9 -66 12 -35 17
-36 19 -13 20 14 0 37 -6 52 -12z m2257 2 c0 -5 -11 -10 -24 -10 -14 0 -28 5
-31 10 -4 6 7 10 24 10 17 0 31 -4 31 -10z m150 -21 c0 -6 -7 -8 -16 -5 -9 3
-18 6 -20 6 -2 0 -4 7 -4 15 0 13 4 14 20 5 11 -6 20 -16 20 -21z m30 27 c0
-3 -4 -8 -10 -11 -5 -3 -10 -1 -10 4 0 6 5 11 10 11 6 0 10 -2 10 -4z m90 0
c0 -11 -19 -15 -25 -6 -3 5 1 10 9 10 9 0 16 -2 16 -4z m-243 -37 l88 -2 -90
-10 c-65 -7 -90 -7 -93 2 -2 6 -10 11 -18 11 -8 0 -14 5 -14 10 0 7 6 7 19 0
11 -5 59 -11 108 -11z m-2322 -9 c-3 -5 -12 -10 -20 -10 -8 0 -17 5 -20 10 -4
6 5 10 20 10 15 0 24 -4 20 -10z m58 -17 c-7 -2 -19 -2 -25 0 -7 3 -2 5 12 5
14 0 19 -2 13 -5z m2147 -13 c0 -5 -4 -10 -10 -10 -5 0 -10 5 -10 10 0 6 5 10
10 10 6 0 10 -4 10 -10z m75 -20 c-45 -21 -65 -24 -65 -11 0 9 56 29 85 29 12
0 5 -6 -20 -18z m-1790 -40 c3 -5 -3 -10 -14 -10 -12 0 -21 5 -21 10 0 6 6 10
14 10 8 0 18 -4 21 -10z m95 0 c0 -5 -5 -10 -11 -10 -5 0 -7 5 -4 10 3 6 8 10
11 10 2 0 4 -4 4 -10z m1225 0 c3 -5 -1 -10 -9 -10 -9 0 -16 5 -16 10 0 6 4
10 9 10 6 0 13 -4 16 -10z m315 0 c0 -5 -9 -10 -21 -10 -11 0 -17 5 -14 10 3
6 13 10 21 10 8 0 14 -4 14 -10z m-245 -25 c-23 -20 -42 -25 -83 -25 -33 0
-51 4 -47 10 3 6 24 10 45 10 22 0 45 6 52 15 7 8 24 14 38 14 l25 0 -30 -24z
m70 15 c3 -5 -1 -10 -9 -10 -8 0 -18 5 -21 10 -3 6 1 10 9 10 8 0 18 -4 21
-10z m-1382 -18 c16 -2 27 0 27 7 0 6 11 11 25 11 14 0 25 -4 25 -10 0 -5 -11
-10 -25 -10 -14 0 -25 -4 -25 -10 0 -5 10 -10 23 -10 21 -1 21 -1 3 -12 -15
-8 -21 -8 -24 0 -2 7 -11 12 -21 12 -23 0 -71 23 -71 34 0 4 8 5 18 1 9 -4 29
-10 45 -13z m287 8 c0 -5 -7 -10 -16 -10 -8 0 -12 5 -9 10 3 6 10 10 16 10 5
0 9 -4 9 -10z m750 0 c11 -7 0 -10 -37 -10 -29 0 -53 5 -53 10 0 13 70 13 90
0z m95 0 c4 -6 -5 -10 -19 -10 -14 0 -26 5 -26 10 0 6 9 10 19 10 11 0 23 -4
26 -10z m-1220 -20 c3 -6 -5 -10 -19 -10 -14 0 -28 5 -31 10 -3 6 5 10 19 10
14 0 28 -4 31 -10z m325 0 c0 -5 -15 -10 -32 -10 -18 0 -42 -2 -53 -4 -11 -2
-14 -1 -7 1 6 3 12 9 12 14 0 5 18 9 40 9 22 0 40 -4 40 -10z m873 -11 c19 -1
24 -3 14 -6 -28 -7 -69 6 -61 19 6 9 9 9 12 0 2 -7 18 -13 35 -13z m-90 -9
c-14 -6 -32 -6 -45 0 -19 7 -15 9 22 9 37 0 41 -2 23 -9z m-900 -27 c-7 -2
-19 -2 -25 0 -7 3 -2 5 12 5 14 0 19 -2 13 -5z m64 1 c-3 -3 -12 -4 -19 -1 -8
3 -5 6 6 6 11 1 17 -2 13 -5z m896 -1 c-7 -2 -19 -2 -25 0 -7 3 -2 5 12 5 14
0 19 -2 13 -5z"/>
<path d="M4922 2578 c-20 -20 -14 -27 13 -15 14 7 25 15 25 20 0 11 -25 8 -38
-5z"/>
<path d="M9083 2965 c-13 -14 -17 -35 -8 -35 8 0 45 34 45 42 0 13 -24 8 -37
-7z"/>
<path d="M4685 2826 c-10 -66 -5 -80 35 -86 28 -4 36 -11 43 -37 9 -29 13 -31
59 -35 65 -4 74 2 60 41 -10 29 -7 61 5 61 3 0 14 -10 24 -22 11 -11 22 -18
26 -14 4 4 1 11 -7 17 -13 8 -12 12 4 24 11 8 16 18 13 22 -4 3 -13 -1 -20
-11 -12 -16 -14 -16 -31 3 -10 11 -23 18 -28 15 -5 -4 -16 4 -25 16 -8 12 -21
19 -27 17 -7 -3 -19 3 -27 14 -9 14 -26 19 -56 19 -42 0 -42 0 -48 -44z m145
-16 c0 -5 11 -15 25 -22 17 -10 22 -17 15 -28 -7 -12 -13 -9 -34 13 -27 29
-33 47 -16 47 6 0 10 -4 10 -10z m8 -68 c2 -7 -3 -12 -12 -12 -9 0 -16 7 -16
16 0 17 22 14 28 -4z"/>
<path d="M8950 2860 c0 -5 4 -10 9 -10 6 0 13 5 16 10 3 6 -1 10 -9 10 -9 0
-16 -4 -16 -10z"/>
<path d="M4613 2805 c0 -33 2 -45 4 -27 2 18 2 45 0 60 -2 15 -4 0 -4 -33z"/>
<path d="M8410 2841 c0 -11 58 -20 98 -14 55 9 35 23 -33 23 -36 0 -65 -4 -65
-9z"/>
<path d="M8693 2743 c-26 -5 -31 -23 -8 -23 8 0 15 -7 15 -15 0 -12 9 -13 48
-8 58 7 59 8 36 30 -12 13 -19 14 -22 5 -4 -14 -52 -17 -52 -3 0 5 10 12 23
14 18 3 18 4 2 4 -11 0 -30 -2 -42 -4z"/>
<path d="M8885 2743 c11 -3 26 -10 33 -15 8 -8 12 -6 12 4 0 9 -12 14 -32 15
-19 1 -24 -1 -13 -4z"/>
<path d="M8810 2730 c0 -5 8 -10 18 -10 29 -1 -29 -40 -59 -40 -15 0 -32 -7
-39 -15 -7 -8 -19 -15 -26 -15 -8 0 -14 -7 -14 -15 0 -8 6 -15 14 -15 8 0 16
7 20 15 3 8 14 15 25 15 11 0 23 5 27 11 4 6 19 9 38 5 19 -4 26 -3 17 3 -18
11 1 23 26 15 15 -5 15 -4 3 5 -8 5 -11 13 -7 17 9 9 -12 34 -29 34 -8 0 -14
-4 -14 -10z"/>
<path d="M8875 2710 c-3 -5 1 -10 9 -10 8 0 18 5 21 10 3 6 -1 10 -9 10 -8 0
-18 -4 -21 -10z"/>
<path d="M8770 2633 c-19 -8 -29 -17 -22 -20 7 -3 27 5 45 16 38 24 26 27 -23
4z"/>
<path d="M8681 2583 c9 -11 15 -11 28 -1 9 7 18 13 20 15 1 1 -11 1 -28 1 -25
-1 -29 -4 -20 -15z"/>
<path d="M8499 2525 c-30 -16 -44 -44 -30 -58 5 -5 16 -2 29 11 10 10 37 23
58 26 32 6 35 9 21 17 -9 6 -22 7 -27 4 -6 -3 -10 -1 -10 4 0 14 -9 13 -41 -4z"/>
<path d="M4925 2490 c-3 -5 3 -10 14 -10 12 0 21 5 21 10 0 6 -6 10 -14 10 -8
0 -18 -4 -21 -10z"/>
</g>
</svg>
